<?xml version="1.0" encoding="utf-8"?>
<svg version="1.1" id="Capa_1" xmlns="http://www.w3.org/2000/svg" xmlns:xlink="http://www.w3.org/1999/xlink" x="0px" y="0px"
	 viewBox="0 0 800 562.2" style="enable-background:new 0 0 800 562.2;" xml:space="preserve">
<path d="M693.5,314c-12.2-12.2-32-12.2-44.3,0c-12.2,12.2-12.2,32,0,44.3l43.9,43.9h-29.2c-28.4,0-56.2-10-78.1-28.1l-112.5-93
	l112.5-93c21.9-18.1,49.6-28.1,78.1-28.1h29.2l-43.9,43.9c-12.2,12.2-12.2,32,0,44.3c6.1,6.1,14.1,9.2,22.1,9.2s16-3.1,22.1-9.2
	l97.4-97.4c12.2-12.2,12.2-32,0-44.3L693.5,9.2c-12.2-12.2-32-12.2-44.3,0c-12.2,12.2-12.2,32,0,44.3l43.9,43.9h-29.2
	c-43,0-84.9,15.1-118,42.5L424.2,240.5L287.1,127.1c-23.2-19.2-52.5-29.7-82.5-29.7H31.3C14,97.4,0,111.4,0,128.7S14,160,31.3,160
	h173.3c15.5,0,30.6,5.4,42.6,15.3l127.9,105.8L247.2,386.9c-12,9.9-27.1,15.3-42.6,15.3H31.3C14,402.2,0,416.2,0,433.5
	c0,17.3,14,31.3,31.3,31.3h173.3c30,0,59.3-10.5,82.5-29.7l137.1-113.4l121.7,100.6c33.1,27.4,75,42.5,118,42.5h29.2l-43.9,43.9
	c-12.2,12.2-12.2,32,0,44.3c6.1,6.1,14.1,9.2,22.1,9.2c8,0,16-3.1,22.1-9.2l97.4-97.4c12.2-12.2,12.2-32,0-44.3L693.5,314z" fill="#FFFFFF"/>
</svg>
